<svg width="40" height="38" viewBox="0 0 40 38" fill="none" xmlns="http://www.w3.org/2000/svg">
<path d="M36.8781 10.4955C33.6027 10.0528 30.1201 10.3428 26.8193 10.3251C26.8147 10.3251 26.812 10.3274 26.8074 10.3274C25.8659 8.20091 24.4982 6.24824 23.0629 4.4298C22.124 3.2402 20.2483 0.23216 18.6075 0.0121625C17.1949 -0.17745 16.3352 1.89868 15.9133 2.8429C15.7399 3.23135 15.5853 3.63019 15.4233 4.02519C15.4176 4.02557 15.4118 4.02557 15.406 4.02596C15.1041 4.03865 15.0426 4.37941 15.2091 4.5421C14.3241 6.78092 13.6053 9.1032 13.0111 11.422C10.2407 10.9805 7.34113 11.0513 4.54732 10.9463C3.16234 10.8939 0.879291 10.577 0.161223 12.1939C-0.514153 13.7154 1.08967 14.9774 2.06466 15.8354C4.62732 18.0908 7.28421 20.2458 9.95225 22.3742C9.97417 22.3915 9.99802 22.395 10.0203 22.4096C8.68265 25.1422 8.26766 28.4287 7.84189 31.4037C7.64651 32.7679 6.6996 35.8767 8.14535 36.974C9.70879 38.1605 11.4811 36.1155 12.4272 35.1732C14.9333 32.6775 17.266 30.0272 19.4748 27.2668C21.4025 29.3079 23.6052 31.0745 25.8463 32.7602C26.9563 33.5952 29.5885 36.4009 31.2508 35.6082C32.8885 34.8275 31.9204 32.3975 31.5624 31.2641C30.5724 28.128 29.7962 24.6811 28.3059 21.7434C30.5528 21.4823 32.7193 19.5154 34.4566 18.1865C35.7277 17.2143 36.9573 16.1904 38.1361 15.1074C38.7753 14.5201 39.8353 13.7212 39.9788 12.7497C40.2342 11.027 38.123 10.6636 36.8781 10.4955ZM36.7981 14.3851C35.1146 15.9023 33.3273 17.3027 31.4643 18.5927C30.1978 19.4696 28.7647 20.0884 27.8882 21.3746C27.8739 21.3954 27.8747 21.4196 27.8686 21.4427C27.5878 21.465 27.3101 21.7538 27.3609 22.0896C27.7055 24.3649 28.6178 26.5907 29.3209 28.7822C29.6251 29.7314 29.9351 30.6795 30.2343 31.6302C30.5562 32.6529 31.1943 34.0575 29.6935 33.821C28.8832 33.6933 27.5932 32.3433 26.9328 31.8548C25.9417 31.1218 24.9655 30.3695 24.0025 29.5999C22.5448 28.4353 21.1163 27.2368 19.6194 26.123C19.371 25.7834 18.9071 25.6291 18.5741 26.0461C17.2872 27.6583 15.9656 29.2387 14.5795 30.7668C13.6045 31.8418 10.9599 35.4859 9.60764 34.9909C8.75727 34.6798 8.88765 33.7163 9.08765 32.7764C9.68264 32.8014 10.273 32.8517 10.868 32.9229C11.0903 32.9494 11.1445 32.5641 10.9215 32.5291C10.3372 32.4375 9.75072 32.4191 9.16265 32.4252C9.21841 32.1721 9.27226 31.9244 9.30303 31.7018C9.36149 31.2791 9.44572 30.8614 9.51149 30.4402C11.0472 30.4872 12.5791 30.6172 14.1095 30.7441C14.3603 30.7648 14.4226 30.3372 14.1695 30.3002C12.6376 30.0756 11.1138 30.0383 9.56956 30.0868C9.67418 29.441 9.76495 28.7929 9.88995 28.1499C9.91533 28.1572 9.92879 28.1783 9.96033 28.1768C10.6407 28.146 11.2934 28.201 11.968 28.2976C12.2788 28.3418 12.4257 27.8853 12.1018 27.8122C11.4011 27.6549 10.7076 27.6272 9.99225 27.6733C10.1299 27.0234 10.2834 26.3749 10.4326 25.7261C11.398 25.6718 12.3634 25.6788 13.3307 25.7076C13.6341 25.7164 13.6264 25.2649 13.3307 25.2407C12.3888 25.1638 11.4592 25.2172 10.5253 25.3195C10.698 24.548 10.8357 23.7715 10.933 22.9896C11.7776 22.9884 12.6188 23.0476 13.4614 23.1165C13.738 23.1392 13.8014 22.6834 13.5272 22.6296C12.6834 22.4634 11.8465 22.4473 10.9949 22.4869C11.0026 22.4003 11.0207 22.3157 11.0269 22.2292C11.0276 22.2161 11.0169 22.2096 11.0165 22.1969C11.1845 21.9615 11.2092 21.6515 10.9119 21.415C10.1426 20.8031 9.38534 20.1765 8.62188 19.5573C10.4438 19.8196 12.2668 20.0515 14.1072 20.1884C14.4676 20.2154 14.4545 19.6738 14.1072 19.6342C12.0138 19.3958 9.91841 19.1669 7.82689 18.9123C7.40959 18.5712 6.98575 18.2377 6.57114 17.8935C6.00769 17.4258 5.44808 16.9535 4.88886 16.4812C6.14653 16.525 7.40228 16.5573 8.66419 16.5285C9.00534 16.5204 8.99842 16.0277 8.66419 16.0035C7.14883 15.8927 5.63808 15.865 4.12117 15.8485C3.16426 15.102 2.3262 14.6489 2.44081 13.3666C4.55117 13.602 6.67499 13.7574 8.79419 13.8643C9.22726 13.8862 9.21072 13.2443 8.79419 13.2005C6.72306 12.9839 4.63963 12.8139 2.55773 12.7201C2.81965 11.8786 3.37541 12.2305 4.54771 12.2662C5.47231 12.2943 6.39653 12.3189 7.32113 12.3443C9.31264 12.3993 11.348 12.5662 13.3303 12.3462C13.6626 12.3093 13.8553 11.9066 13.7191 11.6601C13.7991 11.4528 13.8764 11.2447 13.956 11.0374C14.5395 11.1059 15.3291 11.1305 15.3856 11.1313C16.0876 11.1432 16.7799 11.1143 17.4806 11.077C17.8187 11.0589 17.8183 10.5716 17.4806 10.552C16.5114 10.4955 15.5503 10.472 14.5799 10.5028C14.4503 10.507 14.3068 10.5024 14.1607 10.5001C14.4453 9.75473 14.7283 9.00897 15.0118 8.26321C16.9091 8.34783 18.8283 8.48052 20.7221 8.35898C21.2406 8.3259 21.2356 7.59899 20.7221 7.55668C18.9221 7.40861 17.0952 7.48976 15.2864 7.5413C15.4122 7.21092 15.5376 6.88054 15.6637 6.55016C15.8403 6.0867 16.026 5.39017 16.2641 4.67403C17.2325 4.72441 18.2245 4.76826 19.1664 4.64249C19.5687 4.58903 19.5694 4.06903 19.1664 4.01519C18.3064 3.90057 17.4052 3.92865 16.5179 3.9725C17.0629 2.58559 17.8675 1.38984 19.2756 2.00214C20.5671 2.56328 22.3209 5.59248 23.064 6.654C24.0775 8.10244 24.9063 9.65973 25.8913 11.1232C25.9636 11.2309 26.067 11.2943 26.179 11.3343C26.2717 11.577 26.4824 11.7693 26.8197 11.7693C28.9816 11.7693 31.1435 11.767 33.3058 11.7693C34.3419 11.7705 35.7888 11.5405 36.7788 11.9116C37.6165 11.8012 38.048 12.2293 38.0754 13.1947C37.6557 13.5985 37.23 13.9954 36.7981 14.3851Z" fill="#DB9F29"/>
</svg>
