<?xml version="1.0" standalone="no"?><svg xmlns="http://www.w3.org/2000/svg" viewBox="0 0 1440 320"><path fill="#fff7ec" fill-opacity="1" d="M0,64L34.3,85.3C68.6,107,137,149,206,144C274.3,139,343,85,411,90.7C480,96,549,160,617,176C685.7,192,754,160,823,133.3C891.4,107,960,85,1029,74.7C1097.1,64,1166,64,1234,58.7C1302.9,53,1371,43,1406,37.3L1440,32L1440,0L1405.7,0C1371.4,0,1303,0,1234,0C1165.7,0,1097,0,1029,0C960,0,891,0,823,0C754.3,0,686,0,617,0C548.6,0,480,0,411,0C342.9,0,274,0,206,0C137.1,0,69,0,34,0L0,0Z"></path></svg>